<mxfile host="app.diagrams.net" agent="Mozilla/5.0 (Windows NT 10.0; Win64; x64) AppleWebKit/537.36 (KHTML, like Gecko) Chrome/131.0.0.0 Safari/537.36 Edg/131.0.0.0" version="24.9.0">
  <diagram id="C5RBs43oDa-KdzZeNtuy" name="Page-1">
    <mxGraphModel dx="1699" dy="477" grid="1" gridSize="10" guides="1" tooltips="1" connect="1" arrows="1" fold="1" page="1" pageScale="1" pageWidth="827" pageHeight="1169" math="0" shadow="0">
      <root>
        <mxCell id="WIyWlLk6GJQsqaUBKTNV-0" />
        <mxCell id="WIyWlLk6GJQsqaUBKTNV-1" parent="WIyWlLk6GJQsqaUBKTNV-0" />
        <mxCell id="mvioNwK95yMqdUQ73LqQ-36" value="" style="swimlane;fontFamily=Sarabun;fontSource=https%3A%2F%2Ffonts.googleapis.com%2Fcss%3Ffamily%3DSarabun;align=left;" parent="WIyWlLk6GJQsqaUBKTNV-1" vertex="1">
          <mxGeometry x="-740" y="60" width="640" height="1670" as="geometry" />
        </mxCell>
        <mxCell id="Z396VhOPNJgzjUTIA-1V-6" style="edgeStyle=orthogonalEdgeStyle;rounded=0;orthogonalLoop=1;jettySize=auto;html=1;" parent="mvioNwK95yMqdUQ73LqQ-36" source="mvioNwK95yMqdUQ73LqQ-35" edge="1">
          <mxGeometry relative="1" as="geometry">
            <mxPoint x="320" y="100" as="targetPoint" />
          </mxGeometry>
        </mxCell>
        <mxCell id="mvioNwK95yMqdUQ73LqQ-35" value="&lt;font data-font-src=&quot;https://fonts.googleapis.com/css?family=Sarabun&quot; face=&quot;Sarabun&quot;&gt;Start&lt;/font&gt;" style="ellipse;whiteSpace=wrap;html=1;" parent="mvioNwK95yMqdUQ73LqQ-36" vertex="1">
          <mxGeometry x="255" y="40" width="130" height="30" as="geometry" />
        </mxCell>
        <mxCell id="mvioNwK95yMqdUQ73LqQ-69" value="&lt;font face=&quot;Sarabun&quot;&gt;End&lt;/font&gt;" style="ellipse;whiteSpace=wrap;html=1;" parent="mvioNwK95yMqdUQ73LqQ-36" vertex="1">
          <mxGeometry x="255" y="610" width="130" height="30" as="geometry" />
        </mxCell>
        <mxCell id="Q27Jz9pjHP33qfk4be_s-6" style="edgeStyle=orthogonalEdgeStyle;rounded=0;orthogonalLoop=1;jettySize=auto;html=1;" edge="1" parent="mvioNwK95yMqdUQ73LqQ-36" source="Q27Jz9pjHP33qfk4be_s-0">
          <mxGeometry relative="1" as="geometry">
            <mxPoint x="320" y="220" as="targetPoint" />
          </mxGeometry>
        </mxCell>
        <mxCell id="Q27Jz9pjHP33qfk4be_s-0" value="Declare&lt;div&gt;&lt;br&gt;&lt;/div&gt;&lt;div&gt;celsius, fahrenheit&lt;/div&gt;" style="rounded=0;whiteSpace=wrap;html=1;" vertex="1" parent="mvioNwK95yMqdUQ73LqQ-36">
          <mxGeometry x="260" y="100" width="120" height="60" as="geometry" />
        </mxCell>
        <mxCell id="Q27Jz9pjHP33qfk4be_s-7" style="edgeStyle=orthogonalEdgeStyle;rounded=0;orthogonalLoop=1;jettySize=auto;html=1;" edge="1" parent="mvioNwK95yMqdUQ73LqQ-36" source="Q27Jz9pjHP33qfk4be_s-1">
          <mxGeometry relative="1" as="geometry">
            <mxPoint x="320" y="320" as="targetPoint" />
          </mxGeometry>
        </mxCell>
        <mxCell id="Q27Jz9pjHP33qfk4be_s-1" value="Output &quot;User Input: &quot;" style="shape=parallelogram;perimeter=parallelogramPerimeter;whiteSpace=wrap;html=1;fixedSize=1;" vertex="1" parent="mvioNwK95yMqdUQ73LqQ-36">
          <mxGeometry x="227" y="220" width="186" height="60" as="geometry" />
        </mxCell>
        <mxCell id="Q27Jz9pjHP33qfk4be_s-8" style="edgeStyle=orthogonalEdgeStyle;rounded=0;orthogonalLoop=1;jettySize=auto;html=1;" edge="1" parent="mvioNwK95yMqdUQ73LqQ-36" source="Q27Jz9pjHP33qfk4be_s-2">
          <mxGeometry relative="1" as="geometry">
            <mxPoint x="320" y="420" as="targetPoint" />
          </mxGeometry>
        </mxCell>
        <mxCell id="Q27Jz9pjHP33qfk4be_s-2" value="Read celsius" style="shape=parallelogram;perimeter=parallelogramPerimeter;whiteSpace=wrap;html=1;fixedSize=1;" vertex="1" parent="mvioNwK95yMqdUQ73LqQ-36">
          <mxGeometry x="227" y="320" width="186" height="60" as="geometry" />
        </mxCell>
        <mxCell id="Q27Jz9pjHP33qfk4be_s-9" style="edgeStyle=orthogonalEdgeStyle;rounded=0;orthogonalLoop=1;jettySize=auto;html=1;" edge="1" parent="mvioNwK95yMqdUQ73LqQ-36" source="Q27Jz9pjHP33qfk4be_s-3">
          <mxGeometry relative="1" as="geometry">
            <mxPoint x="320" y="510" as="targetPoint" />
          </mxGeometry>
        </mxCell>
        <mxCell id="Q27Jz9pjHP33qfk4be_s-3" value="fahrenheit = (celsius * 9/5) + 32;" style="rounded=0;whiteSpace=wrap;html=1;" vertex="1" parent="mvioNwK95yMqdUQ73LqQ-36">
          <mxGeometry x="210" y="420" width="220" height="60" as="geometry" />
        </mxCell>
        <mxCell id="Q27Jz9pjHP33qfk4be_s-10" style="edgeStyle=orthogonalEdgeStyle;rounded=0;orthogonalLoop=1;jettySize=auto;html=1;" edge="1" parent="mvioNwK95yMqdUQ73LqQ-36" source="Q27Jz9pjHP33qfk4be_s-5">
          <mxGeometry relative="1" as="geometry">
            <mxPoint x="320" y="610" as="targetPoint" />
          </mxGeometry>
        </mxCell>
        <mxCell id="Q27Jz9pjHP33qfk4be_s-5" value="Output celsius + &quot;degree Celsius&amp;nbsp; &quot;+ farenheit +&quot; degree Fahrenheit&quot;" style="shape=parallelogram;perimeter=parallelogramPerimeter;whiteSpace=wrap;html=1;fixedSize=1;" vertex="1" parent="mvioNwK95yMqdUQ73LqQ-36">
          <mxGeometry x="106.5" y="510" width="427" height="60" as="geometry" />
        </mxCell>
      </root>
    </mxGraphModel>
  </diagram>
</mxfile>
